<svg xmlns="http://www.w3.org/2000/svg" width="135.03" height="35" viewBox="0 0 135.03 35"><rect class="svg__rect" x="0" y="0" width="54.760000000000005" height="35" fill="#FFDF1B"/><rect class="svg__rect" x="52.760000000000005" y="0" width="82.27" height="35" fill="#043C5E"/><path class="svg__text" d="M14.08 19.16L14.08 19.16L14.08 13.47L15.56 13.47L15.56 19.18Q15.56 20.03 15.99 20.48Q16.43 20.93 17.27 20.93L17.27 20.93Q18.98 20.93 18.98 19.13L18.98 19.13L18.98 13.47L20.46 13.47L20.46 19.17Q20.46 20.53 19.59 21.32Q18.72 22.12 17.27 22.12L17.27 22.12Q15.81 22.12 14.94 21.33Q14.08 20.55 14.08 19.16ZM24.59 19.42L24.59 19.42L26.08 19.42Q26.08 20.15 26.56 20.55Q27.04 20.95 27.93 20.95L27.93 20.95Q28.71 20.95 29.10 20.63Q29.49 20.32 29.49 19.80L29.49 19.80Q29.49 19.24 29.09 18.94Q28.70 18.63 27.66 18.32Q26.63 18.01 26.02 17.63L26.02 17.63Q24.86 16.90 24.86 15.72L24.86 15.72Q24.86 14.69 25.70 14.02Q26.54 13.35 27.88 13.35L27.88 13.35Q28.77 13.35 29.47 13.68Q30.17 14.01 30.56 14.61Q30.96 15.22 30.96 15.96L30.96 15.96L29.49 15.96Q29.49 15.29 29.07 14.91Q28.65 14.54 27.87 14.54L27.87 14.54Q27.14 14.54 26.74 14.85Q26.34 15.16 26.34 15.71L26.34 15.71Q26.34 16.18 26.77 16.50Q27.21 16.81 28.20 17.10Q29.20 17.40 29.80 17.78Q30.41 18.16 30.69 18.65Q30.97 19.13 30.97 19.79L30.97 19.79Q30.97 20.86 30.15 21.49Q29.33 22.12 27.93 22.12L27.93 22.12Q27.01 22.12 26.23 21.77Q25.46 21.43 25.02 20.83Q24.59 20.22 24.59 19.42ZM40.84 22L35.26 22L35.26 13.47L40.80 13.47L40.80 14.66L36.74 14.66L36.74 17.02L40.24 17.02L40.24 18.19L36.74 18.19L36.74 20.82L40.84 20.82L40.84 22Z" fill="#2A2A2A"/><path class="svg__text" d="M71.49 22L66.95 22L66.95 13.60L71.25 13.60Q72.85 13.60 73.69 14.19Q74.54 14.79 74.54 15.79L74.54 15.79Q74.54 16.39 74.24 16.87Q73.94 17.34 73.40 17.62L73.40 17.62Q74.13 17.87 74.53 18.41Q74.94 18.94 74.94 19.70L74.94 19.70Q74.94 20.80 74.05 21.40Q73.16 22 71.49 22L71.49 22ZM69.30 18.58L69.30 20.28L71.30 20.28Q72.54 20.28 72.54 19.43L72.54 19.43Q72.54 18.58 71.30 18.58L71.30 18.58L69.30 18.58ZM69.30 15.31L69.30 16.94L70.93 16.94Q72.13 16.94 72.13 16.12L72.13 16.12Q72.13 15.31 70.93 15.31L70.93 15.31L69.30 15.31ZM81.07 22L78.65 22L82.36 13.60L84.70 13.60L88.42 22L85.95 22L85.29 20.37L81.74 20.37L81.07 22ZM83.51 15.93L82.43 18.61L84.59 18.61L83.51 15.93ZM97.11 22L92.57 22L92.57 13.60L96.87 13.60Q98.48 13.60 99.32 14.19Q100.16 14.79 100.16 15.79L100.16 15.79Q100.16 16.39 99.86 16.87Q99.57 17.34 99.03 17.62L99.03 17.62Q99.75 17.87 100.16 18.41Q100.56 18.94 100.56 19.70L100.56 19.70Q100.56 20.80 99.68 21.40Q98.79 22 97.11 22L97.11 22ZM94.93 18.58L94.93 20.28L96.92 20.28Q98.17 20.28 98.17 19.43L98.17 19.43Q98.17 18.58 96.92 18.58L96.92 18.58L94.93 18.58ZM94.93 15.31L94.93 16.94L96.56 16.94Q97.76 16.94 97.76 16.12L97.76 16.12Q97.76 15.31 96.56 15.31L96.56 15.31L94.93 15.31ZM112.02 22L105.28 22L105.28 13.60L111.87 13.60L111.87 15.44L107.64 15.44L107.64 16.85L111.37 16.85L111.37 18.63L107.64 18.63L107.64 20.17L112.02 20.17L112.02 22ZM123.22 22L116.83 22L116.83 13.60L119.21 13.60L119.21 20.11L123.22 20.11L123.22 22Z" fill="#FFFFFF" x="65.76"/></svg>