<svg xmlns="http://www.w3.org/2000/svg" width="169.71999999999997" height="35" viewBox="0 0 169.71999999999997 35"><rect class="svg__rect" x="0" y="0" width="115.03" height="35" fill="#043C5E"/><rect class="svg__rect" x="113.03" y="0" width="56.68999999999998" height="35" fill="#FFDF1B"/><path class="svg__text" d="M15.69 22L14.22 22L14.22 13.47L16.14 13.47L18.60 20.01L21.06 13.47L22.97 13.47L22.97 22L21.49 22L21.49 19.19L21.64 15.43L19.12 22L18.06 22L15.55 15.43L15.69 19.19L15.69 22ZM28.49 22L26.95 22L30.17 13.47L31.50 13.47L34.73 22L33.18 22L32.49 20.01L29.18 20.01L28.49 22ZM30.83 15.28L29.60 18.82L32.07 18.82L30.83 15.28ZM40.17 22L38.69 22L38.69 13.47L40.17 13.47L40.17 17.47L40.99 16.46L43.48 13.47L45.28 13.47L42.11 17.25L45.46 22L43.70 22L41.14 18.31L40.17 19.34L40.17 22ZM54.82 22L49.24 22L49.24 13.47L54.78 13.47L54.78 14.66L50.72 14.66L50.72 17.02L54.23 17.02L54.23 18.19L50.72 18.19L50.72 20.82L54.82 20.82L54.82 22ZM66.37 22L64.40 13.47L65.87 13.47L67.20 19.88L68.83 13.47L70.07 13.47L71.68 19.89L72.99 13.47L74.46 13.47L72.49 22L71.08 22L69.45 15.77L67.80 22L66.37 22ZM80.10 22L78.62 22L78.62 13.47L80.10 13.47L80.10 22ZM86.59 14.66L83.96 14.66L83.96 13.47L90.72 13.47L90.72 14.66L88.06 14.66L88.06 22L86.59 22L86.59 14.66ZM95.96 22L94.48 22L94.48 13.47L95.96 13.47L95.96 17.02L99.78 17.02L99.78 13.47L101.25 13.47L101.25 22L99.78 22L99.78 18.21L95.96 18.21L95.96 22Z" fill="#FFFFFF"/><path class="svg__text" d="M126.79 17.80L126.79 17.80Q126.79 16.54 127.39 15.54Q127.99 14.55 129.04 13.99Q130.09 13.43 131.41 13.43L131.41 13.43Q132.56 13.43 133.48 13.84Q134.41 14.25 135.02 15.02L135.02 15.02L133.51 16.39Q132.70 15.40 131.53 15.40L131.53 15.40Q130.84 15.40 130.31 15.70Q129.78 16 129.48 16.54Q129.19 17.09 129.19 17.80L129.19 17.80Q129.19 18.51 129.48 19.05Q129.78 19.60 130.31 19.90Q130.84 20.20 131.53 20.20L131.53 20.20Q132.70 20.20 133.51 19.22L133.51 19.22L135.02 20.58Q134.41 21.35 133.49 21.76Q132.56 22.17 131.41 22.17L131.41 22.17Q130.09 22.17 129.04 21.61Q127.99 21.05 127.39 20.05Q126.79 19.06 126.79 17.80ZM138.97 21.24L138.97 21.24L139.75 19.49Q140.31 19.86 141.06 20.09Q141.80 20.32 142.52 20.32L142.52 20.32Q143.89 20.32 143.89 19.64L143.89 19.64Q143.89 19.28 143.50 19.11Q143.11 18.93 142.25 18.74L142.25 18.74Q141.30 18.53 140.66 18.30Q140.03 18.06 139.57 17.55Q139.12 17.03 139.12 16.16L139.12 16.16Q139.12 15.39 139.54 14.77Q139.96 14.15 140.79 13.79Q141.63 13.43 142.83 13.43L142.83 13.43Q143.66 13.43 144.46 13.62Q145.27 13.80 145.89 14.17L145.89 14.17L145.15 15.93Q143.95 15.28 142.82 15.28L142.82 15.28Q142.11 15.28 141.79 15.49Q141.47 15.70 141.47 16.04L141.47 16.04Q141.47 16.37 141.85 16.54Q142.24 16.71 143.09 16.89L143.09 16.89Q144.05 17.10 144.68 17.33Q145.31 17.56 145.77 18.07Q146.23 18.58 146.23 19.46L146.23 19.46Q146.23 20.21 145.81 20.83Q145.39 21.44 144.55 21.80Q143.71 22.17 142.51 22.17L142.51 22.17Q141.49 22.17 140.53 21.92Q139.57 21.67 138.97 21.24ZM150.22 21.24L150.22 21.24L151.00 19.49Q151.56 19.86 152.31 20.09Q153.05 20.32 153.77 20.32L153.77 20.32Q155.14 20.32 155.14 19.64L155.14 19.64Q155.14 19.28 154.75 19.11Q154.36 18.93 153.50 18.74L153.50 18.74Q152.55 18.53 151.91 18.30Q151.28 18.06 150.82 17.55Q150.37 17.03 150.37 16.16L150.37 16.16Q150.37 15.39 150.79 14.77Q151.21 14.15 152.04 13.79Q152.88 13.43 154.08 13.43L154.08 13.43Q154.91 13.43 155.71 13.62Q156.52 13.80 157.14 14.17L157.14 14.17L156.40 15.93Q155.20 15.28 154.07 15.28L154.07 15.28Q153.36 15.28 153.04 15.49Q152.72 15.70 152.72 16.04L152.72 16.04Q152.72 16.37 153.10 16.54Q153.49 16.71 154.34 16.89L154.34 16.89Q155.30 17.10 155.93 17.33Q156.56 17.56 157.02 18.07Q157.48 18.58 157.48 19.46L157.48 19.46Q157.48 20.21 157.06 20.83Q156.64 21.44 155.80 21.80Q154.96 22.17 153.76 22.17L153.76 22.17Q152.74 22.17 151.78 21.92Q150.82 21.67 150.22 21.24Z" fill="#000000" x="126.03"/></svg>