<svg xmlns="http://www.w3.org/2000/svg" width="242.11" height="35" viewBox="0 0 242.11 35"><rect class="svg__rect" x="0" y="0" width="139.38" height="35" fill="#2A2A2A"/><rect class="svg__rect" x="137.38" y="0" width="104.73000000000002" height="35" fill="#C13B3A"/><path class="svg__text" d="M16.25 14.66L13.61 14.66L13.61 13.47L20.38 13.47L20.38 14.66L17.72 14.66L17.72 22L16.25 22L16.25 14.66ZM29.72 22L24.14 22L24.14 13.47L29.67 13.47L29.67 14.66L25.62 14.66L25.62 17.02L29.12 17.02L29.12 18.19L25.62 18.19L25.62 20.82L29.72 20.82L29.72 22ZM33.48 19.42L33.48 19.42L34.96 19.42Q34.96 20.15 35.44 20.55Q35.92 20.95 36.82 20.95L36.82 20.95Q37.59 20.95 37.98 20.63Q38.37 20.32 38.37 19.80L38.37 19.80Q38.37 19.24 37.97 18.94Q37.58 18.63 36.55 18.32Q35.52 18.01 34.91 17.63L34.91 17.63Q33.74 16.90 33.74 15.72L33.74 15.72Q33.74 14.69 34.58 14.02Q35.42 13.35 36.76 13.35L36.76 13.35Q37.65 13.35 38.35 13.68Q39.05 14.01 39.45 14.61Q39.85 15.22 39.85 15.96L39.85 15.96L38.37 15.96Q38.37 15.29 37.95 14.91Q37.53 14.54 36.75 14.54L36.75 14.54Q36.03 14.54 35.62 14.85Q35.22 15.16 35.22 15.71L35.22 15.71Q35.22 16.18 35.66 16.50Q36.09 16.81 37.09 17.10Q38.08 17.40 38.69 17.78Q39.29 18.16 39.57 18.65Q39.85 19.13 39.85 19.79L39.85 19.79Q39.85 20.86 39.03 21.49Q38.22 22.12 36.82 22.12L36.82 22.12Q35.89 22.12 35.11 21.77Q34.34 21.43 33.91 20.83Q33.48 20.22 33.48 19.42ZM45.82 14.66L43.19 14.66L43.19 13.47L49.95 13.47L49.95 14.66L47.29 14.66L47.29 22L45.82 22L45.82 14.66ZM55.27 22L53.80 22L53.80 13.47L55.27 13.47L55.27 22ZM61.57 22L60.08 22L60.08 13.47L61.57 13.47L65.38 19.54L65.38 13.47L66.85 13.47L66.85 22L65.37 22L61.57 15.95L61.57 22ZM71.35 18.13L71.35 18.13L71.35 17.46Q71.35 15.53 72.27 14.44Q73.20 13.35 74.86 13.35L74.86 13.35Q76.28 13.35 77.12 14.05Q77.96 14.76 78.13 16.08L78.13 16.08L76.67 16.08Q76.43 14.54 74.89 14.54L74.89 14.54Q73.89 14.54 73.37 15.26Q72.85 15.98 72.83 17.37L72.83 17.37L72.83 18.02Q72.83 19.40 73.42 20.17Q74.00 20.93 75.04 20.93L75.04 20.93Q76.17 20.93 76.65 20.42L76.65 20.42L76.65 18.75L74.90 18.75L74.90 17.62L78.13 17.62L78.13 20.89Q77.67 21.50 76.85 21.81Q76.03 22.12 74.98 22.12L74.98 22.12Q73.91 22.12 73.09 21.63Q72.26 21.14 71.81 20.24Q71.36 19.33 71.35 18.13ZM90.11 22L88.14 13.47L89.61 13.47L90.93 19.88L92.56 13.47L93.81 13.47L95.42 19.89L96.73 13.47L98.20 13.47L96.23 22L94.81 22L93.19 15.77L91.53 22L90.11 22ZM103.84 22L102.36 22L102.36 13.47L103.84 13.47L103.84 22ZM110.33 14.66L107.69 14.66L107.69 13.47L114.46 13.47L114.46 14.66L111.80 14.66L111.80 22L110.33 22L110.33 14.66ZM119.70 22L118.22 22L118.22 13.47L119.70 13.47L119.70 17.02L123.51 17.02L123.51 13.47L124.99 13.47L124.99 22L123.51 22L123.51 18.21L119.70 18.21L119.70 22Z" fill="#C13B3A"/><path class="svg__text" d="M151.14 17.80L151.14 17.80Q151.14 16.54 151.74 15.54Q152.34 14.55 153.39 13.99Q154.44 13.43 155.76 13.43L155.76 13.43Q156.91 13.43 157.83 13.84Q158.76 14.25 159.37 15.02L159.37 15.02L157.86 16.39Q157.05 15.40 155.88 15.40L155.88 15.40Q155.19 15.40 154.66 15.70Q154.13 16 153.83 16.54Q153.54 17.09 153.54 17.80L153.54 17.80Q153.54 18.51 153.83 19.05Q154.13 19.60 154.66 19.90Q155.19 20.20 155.88 20.20L155.88 20.20Q157.05 20.20 157.86 19.22L157.86 19.22L159.37 20.58Q158.76 21.35 157.84 21.76Q156.91 22.17 155.76 22.17L155.76 22.17Q154.44 22.17 153.39 21.61Q152.34 21.05 151.74 20.05Q151.14 19.06 151.14 17.80ZM166.03 18.95L162.83 13.60L165.34 13.60L167.33 16.94L169.32 13.60L171.62 13.60L168.41 18.99L168.41 22L166.03 22L166.03 18.95ZM178.09 22L175.71 22L175.71 13.60L179.55 13.60Q180.69 13.60 181.53 13.98Q182.37 14.35 182.83 15.06Q183.28 15.76 183.28 16.71L183.28 16.71Q183.28 17.66 182.83 18.35Q182.37 19.05 181.53 19.42Q180.69 19.80 179.55 19.80L179.55 19.80L178.09 19.80L178.09 22ZM178.09 15.47L178.09 17.93L179.41 17.93Q180.14 17.93 180.51 17.61Q180.88 17.29 180.88 16.71L180.88 16.71Q180.88 16.12 180.51 15.80Q180.14 15.47 179.41 15.47L179.41 15.47L178.09 15.47ZM190.42 22L188.04 22L188.04 13.60L191.88 13.60Q193.02 13.60 193.86 13.98Q194.70 14.35 195.16 15.06Q195.61 15.76 195.61 16.71L195.61 16.71Q195.61 17.62 195.19 18.30Q194.76 18.98 193.97 19.36L193.97 19.36L195.78 22L193.23 22L191.71 19.77L190.42 19.77L190.42 22ZM190.42 15.47L190.42 17.93L191.73 17.93Q192.47 17.93 192.84 17.61Q193.21 17.29 193.21 16.71L193.21 16.71Q193.21 16.12 192.84 15.79Q192.47 15.47 191.73 15.47L191.73 15.47L190.42 15.47ZM207.14 22L200.40 22L200.40 13.60L206.99 13.60L206.99 15.44L202.76 15.44L202.76 16.85L206.49 16.85L206.49 18.63L202.76 18.63L202.76 20.17L207.14 20.17L207.14 22ZM211.36 21.24L211.36 21.24L212.14 19.49Q212.70 19.86 213.45 20.09Q214.19 20.32 214.91 20.32L214.91 20.32Q216.28 20.32 216.28 19.64L216.28 19.64Q216.28 19.28 215.90 19.11Q215.51 18.93 214.64 18.74L214.64 18.74Q213.69 18.53 213.05 18.30Q212.42 18.06 211.96 17.55Q211.51 17.03 211.51 16.16L211.51 16.16Q211.51 15.39 211.93 14.77Q212.35 14.15 213.18 13.79Q214.02 13.43 215.22 13.43L215.22 13.43Q216.05 13.43 216.86 13.62Q217.66 13.80 218.28 14.17L218.28 14.17L217.54 15.93Q216.34 15.28 215.21 15.28L215.21 15.28Q214.50 15.28 214.18 15.49Q213.86 15.70 213.86 16.04L213.86 16.04Q213.86 16.37 214.24 16.54Q214.63 16.71 215.48 16.89L215.48 16.89Q216.44 17.10 217.07 17.33Q217.70 17.56 218.16 18.07Q218.62 18.58 218.62 19.46L218.62 19.46Q218.62 20.21 218.20 20.83Q217.78 21.44 216.94 21.80Q216.10 22.17 214.90 22.17L214.90 22.17Q213.88 22.17 212.92 21.92Q211.96 21.67 211.36 21.24ZM222.61 21.24L222.61 21.24L223.39 19.49Q223.95 19.86 224.70 20.09Q225.44 20.32 226.16 20.32L226.16 20.32Q227.53 20.32 227.53 19.64L227.53 19.64Q227.53 19.28 227.15 19.11Q226.76 18.93 225.89 18.74L225.89 18.74Q224.94 18.53 224.30 18.30Q223.67 18.06 223.21 17.55Q222.76 17.03 222.76 16.16L222.76 16.16Q222.76 15.39 223.18 14.77Q223.60 14.15 224.43 13.79Q225.27 13.43 226.47 13.43L226.47 13.43Q227.30 13.43 228.11 13.62Q228.91 13.80 229.53 14.17L229.53 14.17L228.79 15.93Q227.59 15.28 226.46 15.28L226.46 15.28Q225.75 15.28 225.43 15.49Q225.11 15.70 225.11 16.04L225.11 16.04Q225.11 16.37 225.49 16.54Q225.88 16.71 226.73 16.89L226.73 16.89Q227.69 17.10 228.32 17.33Q228.95 17.56 229.41 18.07Q229.87 18.58 229.87 19.46L229.87 19.46Q229.87 20.21 229.45 20.83Q229.03 21.44 228.19 21.80Q227.35 22.17 226.15 22.17L226.15 22.17Q225.13 22.17 224.17 21.92Q223.21 21.67 222.61 21.24Z" fill="#2A2A2A" x="150.38"/></svg>