<svg xmlns="http://www.w3.org/2000/svg" width="202.16" height="35" viewBox="0 0 202.16 35"><rect class="svg__rect" x="0" y="0" width="115.03" height="35" fill="#043C5E"/><rect class="svg__rect" x="113.03" y="0" width="89.13" height="35" fill="#FFDF1B"/><path class="svg__text" d="M15.69 22L14.22 22L14.22 13.47L16.14 13.47L18.60 20.01L21.06 13.47L22.97 13.47L22.97 22L21.49 22L21.49 19.19L21.64 15.43L19.12 22L18.06 22L15.55 15.43L15.69 19.19L15.69 22ZM28.49 22L26.95 22L30.17 13.47L31.50 13.47L34.73 22L33.18 22L32.49 20.01L29.18 20.01L28.49 22ZM30.83 15.28L29.60 18.82L32.07 18.82L30.83 15.28ZM40.17 22L38.69 22L38.69 13.47L40.17 13.47L40.17 17.47L40.99 16.46L43.48 13.47L45.28 13.47L42.11 17.25L45.46 22L43.70 22L41.14 18.31L40.17 19.34L40.17 22ZM54.82 22L49.24 22L49.24 13.47L54.78 13.47L54.78 14.66L50.72 14.66L50.72 17.02L54.23 17.02L54.23 18.19L50.72 18.19L50.72 20.82L54.82 20.82L54.82 22ZM66.37 22L64.40 13.47L65.87 13.47L67.20 19.88L68.83 13.47L70.07 13.47L71.68 19.89L72.99 13.47L74.46 13.47L72.49 22L71.08 22L69.45 15.77L67.80 22L66.37 22ZM80.10 22L78.62 22L78.62 13.47L80.10 13.47L80.10 22ZM86.59 14.66L83.96 14.66L83.96 13.47L90.72 13.47L90.72 14.66L88.06 14.66L88.06 22L86.59 22L86.59 14.66ZM95.96 22L94.48 22L94.48 13.47L95.96 13.47L95.96 17.02L99.78 17.02L99.78 13.47L101.25 13.47L101.25 22L99.78 22L99.78 18.21L95.96 18.21L95.96 22Z" fill="#FFFFFF"/><path class="svg__text" d="M129.60 22L127.22 22L127.22 13.60L129.60 13.60L129.60 16.76L132.84 16.76L132.84 13.60L135.21 13.60L135.21 22L132.84 22L132.84 18.72L129.60 18.72L129.60 22ZM142.17 15.48L139.58 15.48L139.58 13.60L147.10 13.60L147.10 15.48L144.54 15.48L144.54 22L142.17 22L142.17 15.48ZM153.67 22L151.48 22L151.48 13.60L153.43 13.60L156.39 18.45L159.27 13.60L161.22 13.60L161.24 22L159.06 22L159.04 17.55L156.88 21.17L155.82 21.17L153.67 17.67L153.67 22ZM172.79 22L166.41 22L166.41 13.60L168.78 13.60L168.78 20.11L172.79 20.11L172.79 22ZM183.44 21.34L183.44 21.34L184.29 19.55Q184.80 19.88 185.40 20.07Q186.01 20.25 186.62 20.25L186.62 20.25Q187.23 20.25 187.60 20.01Q187.96 19.78 187.96 19.36L187.96 19.36Q187.96 18.94 187.60 18.72Q187.25 18.51 186.33 18.51L186.33 18.51L184.05 18.51L184.48 13.60L189.83 13.60L189.83 15.44L186.44 15.44L186.33 16.66L186.90 16.66Q188.66 16.66 189.51 17.38Q190.35 18.10 190.35 19.30L190.35 19.30Q190.35 20.08 189.95 20.73Q189.55 21.39 188.73 21.78Q187.90 22.17 186.69 22.17L186.69 22.17Q185.80 22.17 184.93 21.95Q184.07 21.74 183.44 21.34Z" fill="#000000" x="126.03"/></svg>