<svg xmlns="http://www.w3.org/2000/svg" width="204.16" height="35" viewBox="0 0 204.16 35"><rect class="svg__rect" x="0" y="0" width="139.38" height="35" fill="#2A2A2A"/><rect class="svg__rect" x="137.38" y="0" width="66.78" height="35" fill="#C13B3A"/><path class="svg__text" d="M16.25 14.66L13.61 14.66L13.61 13.47L20.38 13.47L20.38 14.66L17.72 14.66L17.72 22L16.25 22L16.25 14.66ZM29.72 22L24.14 22L24.14 13.47L29.67 13.47L29.67 14.66L25.62 14.66L25.62 17.02L29.12 17.02L29.12 18.19L25.62 18.19L25.62 20.82L29.72 20.82L29.72 22ZM33.48 19.42L33.48 19.42L34.96 19.42Q34.96 20.15 35.44 20.55Q35.92 20.95 36.82 20.95L36.82 20.95Q37.59 20.95 37.98 20.63Q38.37 20.32 38.37 19.80L38.37 19.80Q38.37 19.24 37.97 18.94Q37.58 18.63 36.55 18.32Q35.52 18.01 34.91 17.63L34.91 17.63Q33.74 16.90 33.74 15.72L33.74 15.72Q33.74 14.69 34.58 14.02Q35.42 13.35 36.76 13.35L36.76 13.35Q37.65 13.35 38.35 13.68Q39.05 14.01 39.45 14.61Q39.85 15.22 39.85 15.96L39.85 15.96L38.37 15.96Q38.37 15.29 37.95 14.91Q37.53 14.54 36.75 14.54L36.75 14.54Q36.03 14.54 35.62 14.85Q35.22 15.16 35.22 15.71L35.22 15.71Q35.22 16.18 35.66 16.50Q36.09 16.81 37.09 17.10Q38.08 17.40 38.69 17.78Q39.29 18.16 39.57 18.65Q39.85 19.13 39.85 19.79L39.85 19.79Q39.85 20.86 39.03 21.49Q38.22 22.12 36.82 22.12L36.82 22.12Q35.89 22.12 35.11 21.77Q34.34 21.43 33.91 20.83Q33.48 20.22 33.48 19.42ZM45.82 14.66L43.19 14.66L43.19 13.47L49.95 13.47L49.95 14.66L47.29 14.66L47.29 22L45.82 22L45.82 14.66ZM55.27 22L53.80 22L53.80 13.47L55.27 13.47L55.27 22ZM61.57 22L60.08 22L60.08 13.47L61.57 13.47L65.38 19.54L65.38 13.47L66.85 13.47L66.85 22L65.37 22L61.57 15.95L61.57 22ZM71.35 18.13L71.35 18.13L71.35 17.46Q71.35 15.53 72.27 14.44Q73.20 13.35 74.86 13.35L74.86 13.35Q76.28 13.35 77.12 14.05Q77.96 14.76 78.13 16.08L78.13 16.08L76.67 16.08Q76.43 14.54 74.89 14.54L74.89 14.54Q73.89 14.54 73.37 15.26Q72.85 15.98 72.83 17.37L72.83 17.37L72.83 18.02Q72.83 19.40 73.42 20.17Q74.00 20.93 75.04 20.93L75.04 20.93Q76.17 20.93 76.65 20.42L76.65 20.42L76.65 18.75L74.90 18.75L74.90 17.62L78.13 17.62L78.13 20.89Q77.67 21.50 76.85 21.81Q76.03 22.12 74.98 22.12L74.98 22.12Q73.91 22.12 73.09 21.63Q72.26 21.14 71.81 20.24Q71.36 19.33 71.35 18.13ZM90.11 22L88.14 13.47L89.61 13.47L90.93 19.88L92.56 13.47L93.81 13.47L95.42 19.89L96.73 13.47L98.20 13.47L96.23 22L94.81 22L93.19 15.77L91.53 22L90.11 22ZM103.84 22L102.36 22L102.36 13.47L103.84 13.47L103.84 22ZM110.33 14.66L107.69 14.66L107.69 13.47L114.46 13.47L114.46 14.66L111.80 14.66L111.80 22L110.33 22L110.33 14.66ZM119.70 22L118.22 22L118.22 13.47L119.70 13.47L119.70 17.02L123.51 17.02L123.51 13.47L124.99 13.47L124.99 22L123.51 22L123.51 18.21L119.70 18.21L119.70 22Z" fill="#C13B3A"/><path class="svg__text" d="M150.49 20.93L150.49 20.93L151.78 19.40Q152.45 20.27 153.23 20.27L153.23 20.27Q153.23 20.27 153.24 20.27L153.24 20.27Q153.75 20.27 154.02 19.96Q154.29 19.65 154.29 19.05L154.29 19.05L154.29 15.44L151.39 15.44L151.39 13.60L156.65 13.60L156.65 18.91Q156.65 20.54 155.82 21.36Q155.00 22.17 153.41 22.17L153.41 22.17Q152.48 22.17 151.73 21.85Q150.97 21.53 150.49 20.93ZM168.48 22L161.73 22L161.73 13.60L168.33 13.60L168.33 15.44L164.09 15.44L164.09 16.85L167.82 16.85L167.82 18.63L164.09 18.63L164.09 20.17L168.48 20.17L168.48 22ZM172.70 21.24L172.70 21.24L173.48 19.49Q174.04 19.86 174.78 20.09Q175.53 20.32 176.25 20.32L176.25 20.32Q177.61 20.32 177.62 19.64L177.62 19.64Q177.62 19.28 177.23 19.11Q176.84 18.93 175.97 18.74L175.97 18.74Q175.02 18.53 174.39 18.30Q173.75 18.06 173.30 17.55Q172.84 17.03 172.84 16.16L172.84 16.16Q172.84 15.39 173.26 14.77Q173.68 14.15 174.52 13.79Q175.35 13.43 176.56 13.43L176.56 13.43Q177.38 13.43 178.19 13.62Q179.00 13.80 179.61 14.17L179.61 14.17L178.88 15.93Q177.68 15.28 176.55 15.28L176.55 15.28Q175.84 15.28 175.52 15.49Q175.19 15.70 175.19 16.04L175.19 16.04Q175.19 16.37 175.58 16.54Q175.96 16.71 176.81 16.89L176.81 16.89Q177.77 17.10 178.40 17.33Q179.03 17.56 179.49 18.07Q179.96 18.58 179.96 19.46L179.96 19.46Q179.96 20.21 179.54 20.83Q179.12 21.44 178.28 21.80Q177.44 22.17 176.24 22.17L176.24 22.17Q175.22 22.17 174.26 21.92Q173.29 21.67 172.70 21.24ZM186.33 15.48L183.74 15.48L183.74 13.60L191.27 13.60L191.27 15.48L188.70 15.48L188.70 22L186.33 22L186.33 15.48Z" fill="#2A2A2A" x="150.38"/></svg>