<svg xmlns="http://www.w3.org/2000/svg" width="148.18" height="35" viewBox="0 0 148.18 35"><rect class="svg__rect" x="0" y="0" width="54.760000000000005" height="35" fill="#FFDF1B"/><rect class="svg__rect" x="52.760000000000005" y="0" width="95.41999999999999" height="35" fill="#043C5E"/><path class="svg__text" d="M14.08 19.16L14.08 19.16L14.08 13.47L15.56 13.47L15.56 19.18Q15.56 20.03 15.99 20.48Q16.43 20.93 17.27 20.93L17.27 20.93Q18.98 20.93 18.98 19.13L18.98 19.13L18.98 13.47L20.46 13.47L20.46 19.17Q20.46 20.53 19.59 21.32Q18.72 22.12 17.27 22.12L17.27 22.12Q15.81 22.12 14.94 21.33Q14.08 20.55 14.08 19.16ZM24.59 19.42L24.59 19.42L26.08 19.42Q26.08 20.15 26.56 20.55Q27.04 20.95 27.93 20.95L27.93 20.95Q28.71 20.95 29.10 20.63Q29.49 20.32 29.49 19.80L29.49 19.80Q29.49 19.24 29.09 18.94Q28.70 18.63 27.66 18.32Q26.63 18.01 26.02 17.63L26.02 17.63Q24.86 16.90 24.86 15.72L24.86 15.72Q24.86 14.69 25.70 14.02Q26.54 13.35 27.88 13.35L27.88 13.35Q28.77 13.35 29.47 13.68Q30.17 14.01 30.56 14.61Q30.96 15.22 30.96 15.96L30.96 15.96L29.49 15.96Q29.49 15.29 29.07 14.91Q28.65 14.54 27.87 14.54L27.87 14.54Q27.14 14.54 26.74 14.85Q26.34 15.16 26.34 15.71L26.34 15.71Q26.34 16.18 26.77 16.50Q27.21 16.81 28.20 17.10Q29.20 17.40 29.80 17.78Q30.41 18.16 30.69 18.65Q30.97 19.13 30.97 19.79L30.97 19.79Q30.97 20.86 30.15 21.49Q29.33 22.12 27.93 22.12L27.93 22.12Q27.01 22.12 26.23 21.77Q25.46 21.43 25.02 20.83Q24.59 20.22 24.59 19.42ZM40.84 22L35.26 22L35.26 13.47L40.80 13.47L40.80 14.66L36.74 14.66L36.74 17.02L40.24 17.02L40.24 18.19L36.74 18.19L36.74 20.82L40.84 20.82L40.84 22Z" fill="#2A2A2A"/><path class="svg__text" d="M65.87 20.93L65.87 20.93L67.16 19.40Q67.83 20.27 68.61 20.27L68.61 20.27Q68.61 20.27 68.62 20.27L68.62 20.27Q69.13 20.27 69.40 19.96Q69.67 19.65 69.67 19.05L69.67 19.05L69.67 15.44L66.77 15.44L66.77 13.60L72.03 13.60L72.03 18.91Q72.03 20.54 71.20 21.36Q70.38 22.17 68.79 22.17L68.79 22.17Q67.86 22.17 67.11 21.85Q66.35 21.53 65.87 20.93ZM76.69 17.80L76.69 17.80Q76.69 16.55 77.29 15.55Q77.89 14.56 78.96 14.00Q80.02 13.43 81.35 13.43L81.35 13.43Q82.68 13.43 83.74 14.00Q84.81 14.56 85.41 15.55Q86.02 16.55 86.02 17.80L86.02 17.80Q86.02 19.22 85.25 20.30Q84.47 21.39 83.17 21.85L83.17 21.85Q83.41 22.12 83.64 22.23Q83.87 22.33 84.15 22.33L84.15 22.33Q84.85 22.33 85.42 21.75L85.42 21.75L86.45 22.97Q86.03 23.49 85.43 23.76Q84.82 24.03 84.10 24.03L84.10 24.03Q83.40 24.03 82.84 23.85Q82.28 23.67 81.70 23.25Q81.13 22.84 80.43 22.09L80.43 22.09Q79.34 21.91 78.48 21.31Q77.63 20.72 77.16 19.81Q76.69 18.89 76.69 17.80ZM79.08 17.80L79.08 17.80Q79.08 18.51 79.38 19.05Q79.69 19.60 80.20 19.90Q80.72 20.20 81.35 20.20L81.35 20.20Q81.99 20.20 82.50 19.90Q83.02 19.60 83.32 19.05Q83.62 18.51 83.62 17.80L83.62 17.80Q83.62 17.09 83.32 16.54Q83.02 16 82.50 15.70Q81.99 15.40 81.35 15.40L81.35 15.40Q80.71 15.40 80.20 15.70Q79.69 16 79.38 16.54Q79.08 17.09 79.08 17.80ZM90.68 18.26L90.68 18.26L90.68 13.60L93.06 13.60L93.06 18.19Q93.06 20.20 94.65 20.20L94.65 20.20Q96.23 20.20 96.23 18.19L96.23 18.19L96.23 13.60L98.58 13.60L98.58 18.26Q98.58 20.13 97.54 21.15Q96.50 22.17 94.63 22.17L94.63 22.17Q92.75 22.17 91.72 21.15Q90.68 20.13 90.68 18.26ZM110.41 22L103.66 22L103.66 13.60L110.25 13.60L110.25 15.44L106.02 15.44L106.02 16.85L109.75 16.85L109.75 18.63L106.02 18.63L106.02 20.17L110.41 20.17L110.41 22ZM117.59 22L115.21 22L115.21 13.60L119.06 13.60Q120.20 13.60 121.04 13.98Q121.87 14.35 122.33 15.06Q122.79 15.76 122.79 16.71L122.79 16.71Q122.79 17.62 122.36 18.30Q121.93 18.98 121.14 19.36L121.14 19.36L122.95 22L120.41 22L118.89 19.77L117.59 19.77L117.59 22ZM117.59 15.47L117.59 17.93L118.91 17.93Q119.64 17.93 120.01 17.61Q120.39 17.29 120.39 16.71L120.39 16.71Q120.39 16.12 120.01 15.79Q119.64 15.47 118.91 15.47L118.91 15.47L117.59 15.47ZM129.70 18.95L126.50 13.60L129.00 13.60L131.00 16.94L132.99 13.60L135.29 13.60L132.07 18.99L132.07 22L129.70 22L129.70 18.95Z" fill="#FFFFFF" x="65.76"/></svg>