<svg xmlns="http://www.w3.org/2000/svg" width="192.8" height="35" viewBox="0 0 192.8 35"><rect class="svg__rect" x="0" y="0" width="54.760000000000005" height="35" fill="#FFDF1B"/><rect class="svg__rect" x="52.760000000000005" y="0" width="140.04000000000002" height="35" fill="#043C5E"/><path class="svg__text" d="M14.08 19.16L14.08 19.16L14.08 13.47L15.56 13.47L15.56 19.18Q15.56 20.03 15.99 20.48Q16.43 20.93 17.27 20.93L17.27 20.93Q18.98 20.93 18.98 19.13L18.98 19.13L18.98 13.47L20.46 13.47L20.46 19.17Q20.46 20.53 19.59 21.32Q18.72 22.12 17.27 22.12L17.27 22.12Q15.81 22.12 14.94 21.33Q14.08 20.55 14.08 19.16ZM24.59 19.42L24.59 19.42L26.08 19.42Q26.08 20.15 26.56 20.55Q27.04 20.95 27.93 20.95L27.93 20.95Q28.71 20.95 29.10 20.63Q29.49 20.32 29.49 19.80L29.49 19.80Q29.49 19.24 29.09 18.94Q28.70 18.63 27.66 18.32Q26.63 18.01 26.02 17.63L26.02 17.63Q24.86 16.90 24.86 15.72L24.86 15.72Q24.86 14.69 25.70 14.02Q26.54 13.35 27.88 13.35L27.88 13.35Q28.77 13.35 29.47 13.68Q30.17 14.01 30.56 14.61Q30.96 15.22 30.96 15.96L30.96 15.96L29.49 15.96Q29.49 15.29 29.07 14.91Q28.65 14.54 27.87 14.54L27.87 14.54Q27.14 14.54 26.74 14.85Q26.34 15.16 26.34 15.71L26.34 15.71Q26.34 16.18 26.77 16.50Q27.21 16.81 28.20 17.10Q29.20 17.40 29.80 17.78Q30.41 18.16 30.69 18.65Q30.97 19.13 30.97 19.79L30.97 19.79Q30.97 20.86 30.15 21.49Q29.33 22.12 27.93 22.12L27.93 22.12Q27.01 22.12 26.23 21.77Q25.46 21.43 25.02 20.83Q24.59 20.22 24.59 19.42ZM40.84 22L35.26 22L35.26 13.47L40.80 13.47L40.80 14.66L36.74 14.66L36.74 17.02L40.24 17.02L40.24 18.19L36.74 18.19L36.74 20.82L40.84 20.82L40.84 22Z" fill="#2A2A2A"/><path class="svg__text" d="M69.28 22L66.95 22L66.95 13.60L68.90 13.60L72.61 18.07L72.61 13.60L74.94 13.60L74.94 22L72.99 22L69.28 17.52L69.28 22ZM79.67 17.80L79.67 17.80Q79.67 16.55 80.28 15.55Q80.88 14.56 81.94 14.00Q83.01 13.43 84.34 13.43L84.34 13.43Q85.67 13.43 86.73 14.00Q87.80 14.56 88.40 15.55Q89.01 16.55 89.01 17.80L89.01 17.80Q89.01 19.05 88.40 20.04Q87.80 21.04 86.73 21.60Q85.67 22.17 84.34 22.17L84.34 22.17Q83.01 22.17 81.94 21.60Q80.88 21.04 80.28 20.04Q79.67 19.05 79.67 17.80ZM82.07 17.80L82.07 17.80Q82.07 18.51 82.37 19.05Q82.67 19.60 83.19 19.90Q83.71 20.20 84.34 20.20L84.34 20.20Q84.98 20.20 85.49 19.90Q86.01 19.60 86.31 19.05Q86.61 18.51 86.61 17.80L86.61 17.80Q86.61 17.09 86.31 16.54Q86.01 16 85.49 15.70Q84.98 15.40 84.34 15.40L84.34 15.40Q83.70 15.40 83.19 15.70Q82.67 16 82.37 16.54Q82.07 17.09 82.07 17.80ZM97.71 22L93.74 22L93.74 13.60L97.71 13.60Q99.09 13.60 100.16 14.12Q101.23 14.63 101.81 15.58Q102.40 16.53 102.40 17.80L102.40 17.80Q102.40 19.07 101.81 20.02Q101.23 20.97 100.16 21.48Q99.09 22 97.71 22L97.71 22ZM96.12 15.50L96.12 20.10L97.62 20.10Q98.69 20.10 99.35 19.49Q100.00 18.88 100.00 17.80L100.00 17.80Q100.00 16.72 99.35 16.11Q98.69 15.50 97.62 15.50L97.62 15.50L96.12 15.50ZM113.88 22L107.13 22L107.13 13.60L113.72 13.60L113.72 15.44L109.49 15.44L109.49 16.85L113.22 16.85L113.22 18.63L109.49 18.63L109.49 20.17L113.88 20.17L113.88 22ZM121.92 19.46L118.42 19.46L118.42 17.71L121.92 17.71L121.92 19.46ZM129.20 22L126.82 22L126.82 13.60L133.41 13.60L133.41 15.44L129.20 15.44L129.20 17.28L132.91 17.28L132.91 19.12L129.20 19.12L129.20 22ZM144.75 22L138.00 22L138.00 13.60L144.60 13.60L144.60 15.44L140.36 15.44L140.36 16.85L144.09 16.85L144.09 18.63L140.36 18.63L140.36 20.17L144.75 20.17L144.75 22ZM151.35 15.48L148.76 15.48L148.76 13.60L156.29 13.60L156.29 15.48L153.72 15.48L153.72 22L151.35 22L151.35 15.48ZM160.23 17.80L160.23 17.80Q160.23 16.54 160.83 15.54Q161.42 14.55 162.48 13.99Q163.53 13.43 164.85 13.43L164.85 13.43Q166.00 13.43 166.92 13.84Q167.85 14.25 168.46 15.02L168.46 15.02L166.95 16.39Q166.14 15.40 164.97 15.40L164.97 15.40Q164.28 15.40 163.75 15.70Q163.22 16 162.92 16.54Q162.63 17.09 162.63 17.80L162.63 17.80Q162.63 18.51 162.92 19.05Q163.22 19.60 163.75 19.90Q164.28 20.20 164.97 20.20L164.97 20.20Q166.14 20.20 166.95 19.22L166.95 19.22L168.46 20.58Q167.85 21.35 166.93 21.76Q166.00 22.17 164.85 22.17L164.85 22.17Q163.53 22.17 162.48 21.61Q161.42 21.05 160.83 20.05Q160.23 19.06 160.23 17.80ZM175.38 22L173.00 22L173.00 13.60L175.38 13.60L175.38 16.76L178.62 16.76L178.62 13.60L180.99 13.60L180.99 22L178.62 22L178.62 18.72L175.38 18.72L175.38 22Z" fill="#FFFFFF" x="65.76"/></svg>