<svg xmlns="http://www.w3.org/2000/svg" width="121.44000000000001" height="35" viewBox="0 0 121.44000000000001 35"><rect class="svg__rect" x="0" y="0" width="54.760000000000005" height="35" fill="#FFDF1B"/><rect class="svg__rect" x="52.760000000000005" y="0" width="68.68" height="35" fill="#043C5E"/><path class="svg__text" d="M14.08 19.16L14.08 19.16L14.08 13.47L15.56 13.47L15.56 19.18Q15.56 20.03 15.99 20.48Q16.43 20.93 17.27 20.93L17.27 20.93Q18.98 20.93 18.98 19.13L18.98 19.13L18.98 13.47L20.46 13.47L20.46 19.17Q20.46 20.53 19.59 21.32Q18.72 22.12 17.27 22.12L17.27 22.12Q15.81 22.12 14.94 21.33Q14.08 20.55 14.08 19.16ZM24.59 19.42L24.59 19.42L26.08 19.42Q26.08 20.15 26.56 20.55Q27.04 20.95 27.93 20.95L27.93 20.95Q28.71 20.95 29.10 20.63Q29.49 20.32 29.49 19.80L29.49 19.80Q29.49 19.24 29.09 18.94Q28.70 18.63 27.66 18.32Q26.63 18.01 26.02 17.63L26.02 17.63Q24.86 16.90 24.86 15.72L24.86 15.72Q24.86 14.69 25.70 14.02Q26.54 13.35 27.88 13.35L27.88 13.35Q28.77 13.35 29.47 13.68Q30.17 14.01 30.56 14.61Q30.96 15.22 30.96 15.96L30.96 15.96L29.49 15.96Q29.49 15.29 29.07 14.91Q28.65 14.54 27.87 14.54L27.87 14.54Q27.14 14.54 26.74 14.85Q26.34 15.16 26.34 15.71L26.34 15.71Q26.34 16.18 26.77 16.50Q27.21 16.81 28.20 17.10Q29.20 17.40 29.80 17.78Q30.41 18.16 30.69 18.65Q30.97 19.13 30.97 19.79L30.97 19.79Q30.97 20.86 30.15 21.49Q29.33 22.12 27.93 22.12L27.93 22.12Q27.01 22.12 26.23 21.77Q25.46 21.43 25.02 20.83Q24.59 20.22 24.59 19.42ZM40.84 22L35.26 22L35.26 13.47L40.80 13.47L40.80 14.66L36.74 14.66L36.74 17.02L40.24 17.02L40.24 18.19L36.74 18.19L36.74 20.82L40.84 20.82L40.84 22Z" fill="#2A2A2A"/><path class="svg__text" d="M66.36 21.24L66.36 21.24L67.14 19.49Q67.70 19.86 68.45 20.09Q69.19 20.32 69.91 20.32L69.91 20.32Q71.28 20.32 71.28 19.64L71.28 19.64Q71.28 19.28 70.89 19.11Q70.50 18.93 69.64 18.74L69.64 18.74Q68.69 18.53 68.05 18.30Q67.42 18.06 66.96 17.55Q66.51 17.03 66.51 16.16L66.51 16.16Q66.51 15.39 66.93 14.77Q67.35 14.15 68.18 13.79Q69.02 13.43 70.22 13.43L70.22 13.43Q71.05 13.43 71.86 13.62Q72.66 13.80 73.28 14.17L73.28 14.17L72.54 15.93Q71.34 15.28 70.21 15.28L70.21 15.28Q69.50 15.28 69.18 15.49Q68.86 15.70 68.86 16.04L68.86 16.04Q68.86 16.37 69.24 16.54Q69.63 16.71 70.48 16.89L70.48 16.89Q71.44 17.10 72.07 17.33Q72.70 17.56 73.16 18.07Q73.62 18.58 73.62 19.46L73.62 19.46Q73.62 20.21 73.20 20.83Q72.78 21.44 71.94 21.80Q71.10 22.17 69.90 22.17L69.90 22.17Q68.88 22.17 67.92 21.92Q66.96 21.67 66.36 21.24ZM79.62 22L77.19 22L80.90 13.60L83.24 13.60L86.96 22L84.49 22L83.83 20.37L80.28 20.37L79.62 22ZM82.05 15.93L80.97 18.61L83.13 18.61L82.05 15.93ZM90.53 21.24L90.53 21.24L91.31 19.49Q91.87 19.86 92.61 20.09Q93.36 20.32 94.08 20.32L94.08 20.32Q95.44 20.32 95.45 19.64L95.45 19.64Q95.45 19.28 95.06 19.11Q94.67 18.93 93.80 18.74L93.80 18.74Q92.85 18.53 92.22 18.30Q91.58 18.06 91.13 17.55Q90.67 17.03 90.67 16.16L90.67 16.16Q90.67 15.39 91.09 14.77Q91.51 14.15 92.35 13.79Q93.18 13.43 94.39 13.43L94.39 13.43Q95.21 13.43 96.02 13.62Q96.82 13.80 97.44 14.17L97.44 14.17L96.71 15.93Q95.51 15.28 94.38 15.28L94.38 15.28Q93.67 15.28 93.34 15.49Q93.02 15.70 93.02 16.04L93.02 16.04Q93.02 16.37 93.41 16.54Q93.79 16.71 94.64 16.89L94.64 16.89Q95.60 17.10 96.23 17.33Q96.86 17.56 97.32 18.07Q97.79 18.58 97.79 19.46L97.79 19.46Q97.79 20.21 97.37 20.83Q96.95 21.44 96.11 21.80Q95.27 22.17 94.07 22.17L94.07 22.17Q93.05 22.17 92.08 21.92Q91.12 21.67 90.53 21.24ZM101.78 21.24L101.78 21.24L102.56 19.49Q103.12 19.86 103.86 20.09Q104.61 20.32 105.33 20.32L105.33 20.32Q106.69 20.32 106.70 19.64L106.70 19.64Q106.70 19.28 106.31 19.11Q105.92 18.93 105.05 18.74L105.05 18.74Q104.10 18.53 103.47 18.30Q102.83 18.06 102.38 17.55Q101.92 17.03 101.92 16.16L101.92 16.16Q101.92 15.39 102.34 14.77Q102.76 14.15 103.60 13.79Q104.43 13.43 105.64 13.43L105.64 13.43Q106.46 13.43 107.27 13.62Q108.07 13.80 108.69 14.17L108.69 14.17L107.96 15.93Q106.76 15.28 105.63 15.28L105.63 15.28Q104.92 15.28 104.59 15.49Q104.27 15.70 104.27 16.04L104.27 16.04Q104.27 16.37 104.66 16.54Q105.04 16.71 105.89 16.89L105.89 16.89Q106.85 17.10 107.48 17.33Q108.11 17.56 108.57 18.07Q109.04 18.58 109.04 19.46L109.04 19.46Q109.04 20.21 108.62 20.83Q108.20 21.44 107.36 21.80Q106.52 22.17 105.32 22.17L105.32 22.17Q104.30 22.17 103.33 21.92Q102.37 21.67 101.78 21.24Z" fill="#FFFFFF" x="65.76"/></svg>