<svg xmlns="http://www.w3.org/2000/svg" width="167.34" height="35" viewBox="0 0 167.34 35"><rect class="svg__rect" x="0" y="0" width="54.760000000000005" height="35" fill="#FFDF1B"/><rect class="svg__rect" x="52.760000000000005" y="0" width="114.58" height="35" fill="#043C5E"/><path class="svg__text" d="M14.08 19.16L14.08 19.16L14.08 13.47L15.56 13.47L15.56 19.18Q15.56 20.03 15.99 20.48Q16.43 20.93 17.27 20.93L17.27 20.93Q18.98 20.93 18.98 19.13L18.98 19.13L18.98 13.47L20.46 13.47L20.46 19.17Q20.46 20.53 19.59 21.32Q18.72 22.12 17.27 22.12L17.27 22.12Q15.81 22.12 14.94 21.33Q14.08 20.55 14.08 19.16ZM24.59 19.42L24.59 19.42L26.08 19.42Q26.08 20.15 26.56 20.55Q27.04 20.95 27.93 20.95L27.93 20.95Q28.71 20.95 29.10 20.63Q29.49 20.32 29.49 19.80L29.49 19.80Q29.49 19.24 29.09 18.94Q28.70 18.63 27.66 18.32Q26.63 18.01 26.02 17.63L26.02 17.63Q24.86 16.90 24.86 15.72L24.86 15.72Q24.86 14.69 25.70 14.02Q26.54 13.35 27.88 13.35L27.88 13.35Q28.77 13.35 29.47 13.68Q30.17 14.01 30.56 14.61Q30.96 15.22 30.96 15.96L30.96 15.96L29.49 15.96Q29.49 15.29 29.07 14.91Q28.65 14.54 27.87 14.54L27.87 14.54Q27.14 14.54 26.74 14.85Q26.34 15.16 26.34 15.71L26.34 15.71Q26.34 16.18 26.77 16.50Q27.21 16.81 28.20 17.10Q29.20 17.40 29.80 17.78Q30.41 18.16 30.69 18.65Q30.97 19.13 30.97 19.79L30.97 19.79Q30.97 20.86 30.15 21.49Q29.33 22.12 27.93 22.12L27.93 22.12Q27.01 22.12 26.23 21.77Q25.46 21.43 25.02 20.83Q24.59 20.22 24.59 19.42ZM40.84 22L35.26 22L35.26 13.47L40.80 13.47L40.80 14.66L36.74 14.66L36.74 17.02L40.24 17.02L40.24 18.19L36.74 18.19L36.74 20.82L40.84 20.82L40.84 22Z" fill="#2A2A2A"/><path class="svg__text" d="M69.03 22L66.30 13.60L68.75 13.60L70.44 18.96L72.22 13.60L74.40 13.60L76.09 19.01L77.86 13.60L80.13 13.60L77.40 22L74.86 22L73.25 16.89L71.57 22L69.03 22ZM91.38 22L84.64 22L84.64 13.60L91.23 13.60L91.23 15.44L86.99 15.44L86.99 16.85L90.73 16.85L90.73 18.63L86.99 18.63L86.99 20.17L91.38 20.17L91.38 22ZM100.73 22L96.19 22L96.19 13.60L100.49 13.60Q102.09 13.60 102.93 14.19Q103.77 14.79 103.77 15.79L103.77 15.79Q103.77 16.39 103.48 16.87Q103.18 17.34 102.64 17.62L102.64 17.62Q103.36 17.87 103.77 18.41Q104.18 18.94 104.18 19.70L104.18 19.70Q104.18 20.80 103.29 21.40Q102.40 22 100.73 22L100.73 22ZM98.54 18.58L98.54 20.28L100.53 20.28Q101.78 20.28 101.78 19.43L101.78 19.43Q101.78 18.58 100.53 18.58L100.53 18.58L98.54 18.58ZM98.54 15.31L98.54 16.94L100.17 16.94Q101.37 16.94 101.37 16.12L101.37 16.12Q101.37 15.31 100.17 15.31L100.17 15.31L98.54 15.31ZM111.27 22L108.90 22L108.90 13.60L112.74 13.60Q113.88 13.60 114.72 13.98Q115.56 14.35 116.01 15.06Q116.47 15.76 116.47 16.71L116.47 16.71Q116.47 17.66 116.01 18.35Q115.56 19.05 114.72 19.42Q113.88 19.80 112.74 19.80L112.74 19.80L111.27 19.80L111.27 22ZM111.27 15.47L111.27 17.93L112.59 17.93Q113.32 17.93 113.70 17.61Q114.07 17.29 114.07 16.71L114.07 16.71Q114.07 16.12 113.70 15.80Q113.32 15.47 112.59 15.47L112.59 15.47L111.27 15.47ZM122.64 22L120.22 22L123.92 13.60L126.27 13.60L129.98 22L127.52 22L126.85 20.37L123.30 20.37L122.64 22ZM125.08 15.93L123.99 18.61L126.16 18.61L125.08 15.93ZM133.71 17.80L133.71 17.80Q133.71 16.54 134.31 15.54Q134.90 14.55 135.96 13.99Q137.01 13.43 138.33 13.43L138.33 13.43Q139.48 13.43 140.40 13.84Q141.33 14.25 141.94 15.02L141.94 15.02L140.43 16.39Q139.62 15.40 138.45 15.40L138.45 15.40Q137.76 15.40 137.23 15.70Q136.70 16 136.40 16.54Q136.11 17.09 136.11 17.80L136.11 17.80Q136.11 18.51 136.40 19.05Q136.70 19.60 137.23 19.90Q137.76 20.20 138.45 20.20L138.45 20.20Q139.62 20.20 140.43 19.22L140.43 19.22L141.94 20.58Q141.33 21.35 140.41 21.76Q139.48 22.17 138.33 22.17L138.33 22.17Q137.01 22.17 135.96 21.61Q134.90 21.05 134.31 20.05Q133.71 19.06 133.71 17.80ZM148.83 22L146.48 22L146.48 13.60L148.83 13.60L148.83 17.09L152.08 13.60L154.70 13.60L151.27 17.32L154.88 22L152.12 22L149.72 18.95L148.83 19.90L148.83 22Z" fill="#FFFFFF" x="65.76"/></svg>